<svg xmlns="http://www.w3.org/2000/svg" width="38" height="38" fill="none"><g filter="url(#a)"><rect width="18" height="18" x="10" y="7" fill="#fff" rx="2"/><path fill="#4A56E2" fill-rule="evenodd" d="M12 7a2 2 0 0 0-2 2v14a2 2 0 0 0 2 2h14a2 2 0 0 0 2-2V9a2 2 0 0 0-2-2H12Zm5.8 10.118V21h-3v-5.177H13L19 10l6 5.823h-1.8V21h-3v-3.882h-2.4Z" clip-rule="evenodd"/></g><defs><filter id="a" width="44" height="44" x="-3" y="-3" color-interpolation-filters="sRGB" filterUnits="userSpaceOnUse"><feFlood flood-opacity="0" result="BackgroundImageFix"/><feColorMatrix in="SourceAlpha" result="hardAlpha" values="0 0 0 0 0 0 0 0 0 0 0 0 0 0 0 0 0 0 127 0"/><feOffset dy="3"/><feGaussianBlur stdDeviation="5"/><feColorMatrix values="0 0 0 0 0.290196 0 0 0 0 0.337255 0 0 0 0 0.886275 0 0 0 0.5 0"/><feBlend in2="BackgroundImageFix" result="effect1_dropShadow_5_119"/><feBlend in="SourceGraphic" in2="effect1_dropShadow_5_119" result="shape"/></filter></defs></svg>